<?xml version="1.0" standalone="no"?>
<!DOCTYPE svg PUBLIC "-//W3C//DTD SVG 20010904//EN"
 "http://www.w3.org/TR/2001/REC-SVG-20010904/DTD/svg10.dtd">
<svg version="1.0" xmlns="http://www.w3.org/2000/svg"
 width="440.000000pt" height="440.000000pt" viewBox="0 0 440.000000 440.000000"
 preserveAspectRatio="xMidYMid meet">

    <g transform="translate(0.000000,440.000000) scale(0.100000,-0.100000)"
        fill="#0E497D" stroke="none">
<path d="M1940 4174 c-433 -57 -831 -256 -1145 -569 -317 -318 -512 -713 -569
-1153 -103 -800 279 -1575 980 -1988 183 -108 432 -199 654 -239 125 -23 448
-31 578 -15 457 56 850 247 1173 569 299 299 483 646 560 1056 30 157 37 458
15 620 -92 664 -496 1229 -1094 1529 -340 170 -768 241 -1152 190z m392 -654
c682 -65 1209 -643 1208 -1327 -1 -515 -301 -985 -771 -1207 -491 -232 -1086
-136 -1478 239 -215 206 -354 468 -403 759 -18 106 -15 344 6 448 115 590 585
1026 1171 1087 116 12 148 12 267 1z"/>
<path d="M2092 2850 c-362 -65 -609 -424 -538 -780 66 -329 355 -555 686 -537
52 3 120 13 150 22 274 84 458 313 477 596 25 370 -259 687 -631 704 -50 2
-115 0 -144 -5z"/>
</g>
</svg>
