<?xml version="1.0" standalone="no"?>
<!DOCTYPE svg PUBLIC "-//W3C//DTD SVG 20010904//EN"
 "http://www.w3.org/TR/2001/REC-SVG-20010904/DTD/svg10.dtd">
<svg version="1.0" xmlns="http://www.w3.org/2000/svg"
 width="387.000000pt" height="48.000000pt" viewBox="0 0 387.000000 48.000000"
 preserveAspectRatio="xMidYMid meet">

    <g transform="translate(0.000000,48.000000) scale(0.100000,-0.100000)"
        fill="#0E497D" stroke="none">
<path d="M76 448 c-3 -7 -17 -74 -31 -148 -15 -74 -29 -145 -32 -157 -4 -19
-1 -23 20 -23 27 0 34 19 53 140 4 22 10 40 14 40 4 0 22 -41 40 -90 18 -50
36 -90 40 -90 4 0 23 40 41 90 18 49 36 90 40 90 4 0 9 -18 13 -40 19 -119 27
-140 52 -140 13 0 24 3 24 8 -1 21 -68 323 -73 328 -13 14 -25 -11 -57 -116
-18 -60 -36 -110 -40 -110 -3 0 -22 50 -41 112 -32 103 -53 139 -63 106z"/>
<path d="M806 318 c-15 -79 -30 -155 -33 -170 -5 -25 -2 -28 20 -28 20 0 27 6
31 28 3 15 11 55 17 90 6 34 15 62 18 62 4 0 13 -17 20 -37 39 -109 53 -143
60 -143 5 0 23 40 41 90 18 50 36 90 39 90 4 0 13 -34 20 -77 17 -99 19 -103
48 -103 18 0 23 4 19 18 -2 9 -17 78 -31 152 -14 74 -29 143 -31 153 -12 41
-32 11 -64 -98 -19 -63 -37 -115 -41 -115 -4 0 -19 39 -33 88 -15 48 -31 98
-35 112 -4 14 -14 26 -22 28 -11 2 -21 -31 -43 -140z"/>
<path d="M2080 457 c0 -9 -61 -304 -66 -320 -5 -15 -1 -18 22 -15 26 3 29 8
41 68 27 136 26 136 68 16 16 -47 34 -85 39 -83 5 2 20 32 33 68 13 35 28 75
34 89 11 24 12 24 19 5 4 -11 13 -53 20 -92 11 -67 14 -73 36 -73 13 0 24 6
24 13 0 6 -15 83 -32 170 -21 99 -37 157 -45 157 -7 0 -28 -51 -49 -116 -19
-64 -39 -112 -44 -108 -4 5 -23 57 -40 117 -21 66 -38 107 -47 107 -7 0 -13
-2 -13 -3z"/>
<path d="M1723 423 c-7 -2 -13 -16 -13 -29 0 -15 -6 -24 -15 -24 -9 0 -15 -9
-15 -25 0 -16 6 -25 15 -25 12 0 15 -15 15 -75 0 -68 3 -79 25 -101 20 -20 34
-25 63 -22 32 3 37 7 40 29 3 23 0 26 -21 22 -40 -8 -58 21 -55 86 3 55 3 56
36 59 26 3 32 7 32 28 0 21 -5 24 -35 24 -32 0 -35 2 -35 30 0 29 -9 35 -37
23z"/>
<path d="M412 249 c27 -66 48 -130 46 -142 -2 -14 -14 -24 -35 -31 -26 -7 -33
-14 -33 -34 0 -21 3 -23 28 -18 58 14 73 36 132 194 l58 152 -28 0 c-26 0 -30
-5 -55 -80 -15 -44 -30 -82 -34 -85 -5 -2 -23 34 -41 80 -30 78 -35 85 -60 85
l-27 0 49 -121z"/>
<path d="M1203 356 c-46 -21 -67 -59 -66 -118 1 -43 6 -55 32 -82 28 -28 37
-31 91 -31 66 1 82 10 74 41 -5 19 -9 20 -43 11 -43 -12 -94 7 -99 36 -3 15 6
17 87 17 l91 0 0 35 c0 76 -90 125 -167 91z m98 -55 c13 -11 21 -22 18 -26 -4
-3 -35 -5 -70 -3 l-64 3 23 23 c27 27 62 28 93 3z"/>
<path d="M1483 356 c-89 -40 -95 -179 -10 -219 41 -20 72 -21 116 -6 35 12 35
13 21 40 -9 15 -15 17 -30 9 -40 -22 -110 1 -110 36 0 11 18 14 90 14 89 0 90
0 90 24 0 85 -87 138 -167 102z m100 -58 l22 -23 -64 -3 c-35 -2 -66 0 -70 3
-10 11 39 45 65 45 13 0 34 -10 47 -22z"/>
<path d="M2427 364 c-12 -4 -17 -13 -15 -27 3 -19 8 -22 44 -19 30 3 46 -2 59
-15 18 -17 17 -18 -30 -25 -66 -9 -99 -36 -103 -80 -5 -62 66 -98 127 -64 21
12 27 12 39 -1 18 -17 49 -12 43 8 -3 8 -7 51 -11 97 -7 99 -24 122 -91 127
-24 2 -52 1 -62 -1z m101 -156 c4 -23 -38 -43 -72 -34 -14 3 -26 13 -26 22 0
33 92 44 98 12z"/>
<path d="M2650 245 l0 -125 25 0 c25 0 25 1 25 88 0 85 1 89 25 100 65 30 85
6 85 -104 0 -83 0 -84 25 -84 25 0 25 0 25 98 0 85 -3 101 -20 120 -28 30 -66
37 -109 22 -26 -9 -36 -10 -39 -1 -2 6 -12 11 -23 11 -18 0 -19 -8 -19 -125z"/>
<path d="M2967 364 c-12 -4 -17 -13 -15 -27 3 -19 8 -22 44 -19 30 3 46 -2 59
-15 18 -17 17 -18 -30 -25 -66 -9 -99 -36 -103 -80 -5 -62 66 -98 127 -64 21
12 27 12 39 -1 18 -17 49 -12 43 8 -3 8 -7 51 -11 97 -7 99 -24 122 -91 127
-24 2 -52 1 -62 -1z m101 -156 c4 -23 -38 -43 -72 -34 -14 3 -26 13 -26 22 0
33 92 44 98 12z"/>
<path d="M3224 360 c-52 -21 -69 -88 -34 -133 17 -22 18 -26 5 -37 -19 -16
-19 -44 0 -60 10 -9 31 -10 66 -6 54 7 82 -4 72 -29 -7 -20 -63 -28 -97 -15
-25 9 -33 8 -49 -8 -19 -19 -18 -20 27 -37 86 -33 166 4 166 76 0 51 -20 64
-92 62 -32 -1 -58 3 -58 8 0 5 16 9 35 9 75 0 115 43 102 110 -4 18 -2 30 6
33 9 4 9 7 0 17 -14 16 -119 22 -149 10z m77 -50 c37 -21 13 -70 -35 -70 -16
0 -46 26 -46 40 0 14 30 40 46 40 9 0 24 -5 35 -10z"/>
<path d="M3483 356 c-46 -21 -67 -59 -66 -118 1 -43 6 -55 32 -82 28 -28 37
-31 91 -31 66 1 82 10 74 41 -5 19 -9 20 -43 11 -43 -12 -94 7 -99 36 -3 15 6
17 87 17 l91 0 0 35 c0 76 -90 125 -167 91z m98 -55 c13 -11 21 -22 18 -26 -4
-3 -35 -5 -70 -3 l-64 3 23 23 c27 27 62 28 93 3z"/>
<path d="M3710 245 l0 -125 25 0 c25 0 25 1 25 80 0 68 3 83 21 101 14 14 29
19 46 16 18 -3 27 1 33 17 4 11 6 24 3 29 -7 13 -58 8 -81 -9 -20 -14 -22 -14
-22 0 0 10 -9 16 -25 16 l-25 0 0 -125z"/>
</g>
</svg>
